HIERARCHY
ROOT Pelvis
{
	OFFSET 0.000000 0.000000 0.000000
	CHANNELS 6 Xposition Yposition Zposition Xrotation Yrotation Zrotation
	JOINT LeftUpLeg_virtual
	{
		OFFSET 0.000000 0.000000 0.000000
		CHANNELS 3 Xrotation Yrotation Zrotation
		JOINT LeftUpLeg
		{
			OFFSET 18.735201 -5.666702 -4.541200
			CHANNELS 3 Xrotation Yrotation Zrotation
			JOINT LeftLeg
			{
				OFFSET -0.021200 -31.938179 0.493100
				CHANNELS 3 Xrotation Yrotation Zrotation
				JOINT LeftFoot
				{
					OFFSET 0.021200 -31.938179 -4.336299
					CHANNELS 3 Xrotation Yrotation Zrotation
					JOINT LeftToeBase
					{
						OFFSET 0.943001 -26.722000 15.023500
						CHANNELS 3 Xrotation Yrotation Zrotation
						End Site
						{
							OFFSET 0 0 0
						}
					}
				}
			}
		}
	}
	JOINT RightUpLeg_virtual
	{
		OFFSET 0.000000 0.000000 0.000000
		CHANNELS 3 Xrotation Yrotation Zrotation
		JOINT RightUpLeg
		{
			OFFSET -18.735201 -5.666702 -4.541200
			CHANNELS 3 Xrotation Yrotation Zrotation
			JOINT RightLeg
			{
				OFFSET 0.018946 -31.938133 0.493100
				CHANNELS 3 Xrotation Yrotation Zrotation
				JOINT RightFoot
				{
					OFFSET -0.018946 -31.938126 -4.336299
					CHANNELS 3 Xrotation Yrotation Zrotation
					JOINT RightToeBase
					{
						OFFSET -0.943001 -26.722004 15.023500
						CHANNELS 3 Xrotation Yrotation Zrotation
						End Site
						{
							OFFSET 0 0 0
						}
					}
				}
			}
		}
	}
	JOINT Hips_virtual
	{
		OFFSET 0.000000 0.000000 0.000000
		CHANNELS 3 Xrotation Yrotation Zrotation
		JOINT Hips
		{
			OFFSET -0.000000 -0.000000 -0.000000
			CHANNELS 3 Xrotation Yrotation Zrotation
			JOINT Spine
			{
				OFFSET 0.000000 10.199997 -0.299500
				CHANNELS 3 Xrotation Yrotation Zrotation
				JOINT Spine1
				{
					OFFSET 0.000000 11.900002 -1.516600
					CHANNELS 3 Xrotation Yrotation Zrotation
					JOINT Spine2
					{
						OFFSET 0.000000 13.600006 -2.842500
						CHANNELS 3 Xrotation Yrotation Zrotation
						JOINT Neck_virtual
						{
							OFFSET 0.000000 0.000000 0.000000
							CHANNELS 3 Xrotation Yrotation Zrotation
							JOINT Neck
							{
								OFFSET 0.000000 9.624100 -2.890100
								CHANNELS 3 Xrotation Yrotation Zrotation
								JOINT Head
								{
									OFFSET 0.000000 14.068802 -1.351900
									CHANNELS 3 Xrotation Yrotation Zrotation
									End Site
									{
										OFFSET 0 0 0
									}
								}
							}
						}
						JOINT LeftShoulder_virtual
						{
							OFFSET 0.000000 0.000000 0.000000
							CHANNELS 3 Xrotation Yrotation Zrotation
							JOINT LeftShoulder
							{
								OFFSET 15.263000 10.923401 -0.547700
								CHANNELS 3 Xrotation Yrotation Zrotation
								JOINT LeftArm
								{
									OFFSET 25.438599 -2.830597 -13.032500
									CHANNELS 3 Xrotation Yrotation Zrotation
									JOINT LeftForeArm
									{
										OFFSET 29.960503 0.000000 0.000000
										CHANNELS 3 Xrotation Yrotation Zrotation
										JOINT LeftHand
										{
											OFFSET 27.849251 0.000000 0.000000
											CHANNELS 3 Xrotation Yrotation Zrotation
											End Site
											{
												OFFSET 0 0 0
											}
										}
									}
								}
							}
						}
						JOINT RightShoulder_virtual
						{
							OFFSET 0.000000 0.000000 0.000000
							CHANNELS 3 Xrotation Yrotation Zrotation
							JOINT RightShoulder
							{
								OFFSET -15.263000 10.923401 -0.547700
								CHANNELS 3 Xrotation Yrotation Zrotation
								JOINT RightArm
								{
									OFFSET -25.438599 -2.830597 -13.032500
									CHANNELS 3 Xrotation Yrotation Zrotation
									JOINT RightForeArm
									{
										OFFSET -29.960503 0.000000 0.000000
										CHANNELS 3 Xrotation Yrotation Zrotation
										JOINT RightHand
										{
											OFFSET -27.849251 0.000000 0.000000
											CHANNELS 3 Xrotation Yrotation Zrotation
											End Site
											{
												OFFSET 0 0 0
											}
										}
									}
								}
							}
						}
					}
				}
			}
		}
	}
}
MOTION
Frames: 5
Frame Time: 0.03333333
-1.755611 72.573128 -47.672539 0.000000 0.000000 0.000000 41.239688 -85.016936 42.006247 -44.213362 -3.170154 24.716990 75.695496 10.218980 3.579806 -23.119321 9.944845 -33.364378 0.000000 0.000000 0.000000 40.782817 -85.988585 40.945867 -64.359759 -0.400456 -16.782306 90.134748 21.320746 -8.402795 -41.005034 -3.675888 6.446262 0.000000 0.000000 0.000000 26.335218 -83.081342 27.539097 -0.966650 -1.758694 -2.913491 6.900003 10.166780 -3.700517 11.453042 17.957443 -9.166653 0.000000 0.000000 0.000000 9.588433 17.939943 -8.353386 0.081744 1.459593 0.904702 0.000000 0.000000 0.000000 10.996565 17.758806 -9.388134 3.577707 -5.781042 4.801892 -75.766435 -31.197408 -62.729885 36.809016 -73.773659 33.982032 0.000000 0.000000 0.000000 9.385714 18.621934 -7.870564 5.793849 8.359045 -6.376981 -39.682101 -3.206210 27.988867 -14.862591 48.812210 4.411024 0.000000 0.000000 0.000000 
-0.992322 71.477448 -48.649788 0.000000 0.000000 0.000000 43.912628 -80.975007 44.416795 -51.741466 -3.785560 25.770936 76.824998 9.536809 2.140457 -20.661935 9.141789 -33.036536 0.000000 0.000000 0.000000 41.103522 -81.958677 41.616602 -68.743586 1.133326 -17.217054 92.760806 20.300188 -8.298273 -41.263792 -4.352618 5.164067 0.000000 0.000000 0.000000 37.874741 -80.153376 38.807018 -0.593202 -1.734635 -2.848279 7.827070 9.707921 -3.782234 11.866872 17.208925 -9.214519 0.000000 0.000000 0.000000 9.915884 17.200105 -8.368446 -0.083664 1.916839 0.776056 0.000000 0.000000 0.000000 11.344128 16.986773 -9.294686 3.266716 -6.109824 2.771750 -62.046524 -22.738873 -58.209659 36.396558 -71.496398 32.917721 0.000000 0.000000 0.000000 9.751119 17.795807 -7.974853 4.957242 7.539095 -3.758172 -33.773393 -8.227621 28.861053 -14.148235 46.711052 7.500098 0.000000 0.000000 0.000000 
-0.466759 70.906929 -49.108368 0.000000 0.000000 0.000000 42.661928 -76.319168 43.007126 -59.338122 -4.618254 26.207533 77.618577 8.606170 0.697954 -17.139962 8.090154 -31.488309 0.000000 0.000000 0.000000 39.418845 -77.218519 40.218555 -72.633912 2.713838 -17.711922 93.598419 19.078267 -7.948918 -39.273045 -4.734067 4.752322 0.000000 0.000000 0.000000 42.293634 -76.325096 43.023662 -0.103724 -1.913898 -2.621478 8.269683 9.183803 -3.789508 12.010406 16.540603 -8.997273 0.000000 0.000000 0.000000 10.064453 16.544122 -8.150731 -0.337734 2.346084 0.677431 0.000000 0.000000 0.000000 11.516263 16.337147 -8.911628 3.056322 -5.464739 1.074159 -48.217201 -14.694698 -55.826357 31.438893 -67.244660 27.734772 0.000000 0.000000 0.000000 10.100248 17.005655 -7.863011 4.140077 6.941969 -0.802036 -26.022647 -15.138204 30.986926 -14.065331 46.127044 10.601641 0.000000 0.000000 0.000000 
-0.208124 70.690704 -48.998413 0.000000 0.000000 0.000000 41.484237 -71.743378 41.741547 -65.327973 -5.337328 25.972921 77.960312 7.267333 -0.288187 -14.042434 6.971960 -29.349039 0.000000 0.000000 0.000000 38.716832 -72.548330 39.645102 -75.050802 4.517724 -17.816946 93.059388 17.851309 -7.701977 -36.837519 -4.710343 5.864608 0.000000 0.000000 0.000000 43.685156 -72.368600 44.243913 0.037679 -2.198601 -2.162817 8.269514 8.660290 -3.730648 11.967057 15.951910 -8.646359 0.000000 0.000000 0.000000 10.104391 15.944909 -7.830507 -0.629855 2.739839 0.614297 0.000000 0.000000 0.000000 11.532491 15.765777 -8.393211 2.883305 -4.361929 -0.480593 -35.211766 -8.250958 -56.232459 25.659725 -61.956769 21.986196 0.000000 0.000000 0.000000 10.427107 16.287382 -7.625090 3.419432 6.815666 2.476653 -16.650307 -22.583891 35.186566 -14.359383 46.430851 13.285761 0.000000 0.000000 0.000000 
-0.161249 70.880882 -48.649010 0.000000 0.000000 0.000000 41.314196 -68.262632 41.564597 -68.474224 -5.294315 25.180181 76.978254 5.643450 -0.794676 -12.093058 5.591919 -27.740205 0.000000 0.000000 0.000000 38.905212 -68.688713 39.830190 -75.459780 6.008993 -17.871687 91.420354 16.573973 -7.520708 -35.451718 -4.513759 8.389777 0.000000 0.000000 0.000000 44.270817 -69.161772 44.720759 -0.037166 -2.193232 -1.999692 7.922684 8.199893 -3.568713 11.851463 15.419891 -8.242887 0.000000 0.000000 0.000000 10.087423 15.373733 -7.473695 -0.891868 3.081381 0.597141 0.000000 0.000000 0.000000 11.430565 15.252863 -7.873394 2.720281 -3.240579 -2.043556 -24.288918 -3.718883 -58.941602 20.946066 -56.677989 17.341195 0.000000 0.000000 0.000000 10.694281 15.655506 -7.310834 2.799120 7.170402 5.735369 -7.046144 -28.628567 40.918611 -14.492924 46.480479 15.087925 0.000000 0.000000 0.000000 
